<?xml version="1.0" encoding="utf-8"?>
<!-- Generator: Adobe Illustrator 19.0.0, SVG Export Plug-In . SVG Version: 6.00 Build 0)  -->
<svg version="1.1" id="layer" xmlns="http://www.w3.org/2000/svg" xmlns:xlink="http://www.w3.org/1999/xlink" x="0px" y="0px"
	 viewBox="-153 -46 652 652" style="enable-background:new -153 -46 652 652;" xml:space="preserve">
<style type="text/css">
	.st0{fill:#FFFF00;}
</style>
<rect x="-131.7" y="139.5" class="st0" width="600" height="270.2"/>
<path d="M-64.7,258.3l4.8-30.2h0.2l4.8,30.2H-64.7z M-67.4,214l-13,70.4h11.7l2.1-15.6h13.3l2.1,15.6h11.7l-13-70.4H-67.4z
	 M-22.9,229.4h0.2l10.9,55h5.9l10.9-55h0.2v55h10.5V214H-0.2l-8.6,41.1H-9l-8.6-41.1h-15.9v70.4h10.5L-22.9,229.4z M53,254.3h-0.2
	L38,214H26.8v70.4h10.9v-44h0.2l15.4,44h10.5V214H53V254.3z M108.7,273.9H87.1v-20.7h15.6v-10.5H87.1v-18.1h20.3V214H75v70.4h33.7
	V273.9z M124.9,230.5c0-4.4,2.1-6.9,6-6.9c2.7,0,5.9,1.8,6.4,7.8l11.5-1.3c-1.1-10-6.9-17.1-16.8-17.1c-11.9,0-18.7,6.3-18.7,17.6
	c0,20.2,24.6,23.9,24.6,37.8c0,4.2-2.8,6.4-7,6.4c-3.9,0-6.7-3.5-7.2-10.6l-11.5,1.7c0.5,10.5,6.9,19.5,18.2,19.5
	c11.3,0,19.1-6.4,19.1-18C149.5,248.3,124.9,242.5,124.9,230.5 M163.3,284.4h12.1v-59.9h11.7V214h-35.5v10.5h11.7V284.4z
	 M210.4,240.8h-0.2l-8.5-26.8h-12.3l14.6,41.1v29.3h12.1v-29.3l14.6-41.1h-12.3L210.4,240.8z M-78.7,302.9h7.3v42.4h-7.3V302.9z
	 M-65.1,345.3v-42.4h6.8l8.9,24.3h0.1v-24.3h6.6v42.4h-6.3l-9.3-26.5h-0.1v26.5H-65.1z M-32.5,309.2h-7.1v-6.3h21.4v6.3h-7v36.1
	h-7.3L-32.5,309.2z M-14.9,345.3v-42.4H4.6v6.3H-7.7v10.9h9.4v6.3h-9.4V339H5.4v6.3L-14.9,345.3z M17.4,345.3h-7.3v-42.4h10.2
	c4.1,0,7.2,1,9.2,2.9c2.1,1.9,3.1,5.1,3.1,9.6c0,1.7-0.1,3.2-0.4,4.4c-0.2,1.1-0.6,2.1-1.2,3.1c-0.5,0.8-1,1.5-1.6,2
	c-0.6,0.5-1.2,0.9-1.9,1.2l6.2,19.2h-7.4l-5.2-17.6c-0.5,0.1-1.1,0.1-1.7,0.1c-0.7,0-1.4,0-2,0C17.4,327.9,17.4,345.3,17.4,345.3z
	 M17.5,321.9h2.6c1,0,1.8-0.1,2.5-0.3c0.7-0.2,1.2-0.5,1.7-1.1c0.4-0.5,0.7-1.2,0.9-2c0.2-0.8,0.3-1.9,0.3-3.1
	c0-2.5-0.4-4.2-1.2-5.1c-0.8-0.9-2.2-1.4-4.2-1.4h-2.6C17.5,308.9,17.5,321.9,17.5,321.9z M38.4,345.3v-42.4h6.8l8.9,24.3h0.1v-24.3
	h6.6v42.4h-6.4l-9.3-26.5H45v26.5H38.4z M71.9,345.3h-7.1l7.8-42.4h9.1l7.8,42.4h-7.1l-1.3-9.4h-8L71.9,345.3z M74.2,329.6h5.9
	l-2.9-18.2h-0.1L74.2,329.6z M96,309.2H89v-6.3h21.4v6.3h-7v36.1H96L96,309.2z M114.3,302.9h7.3v42.4h-7.3V302.9z M127.4,313.2
	c0-1.5,0.2-2.9,0.7-4.2c0.4-1.3,1.1-2.5,2.1-3.5c0.9-1,2.1-1.8,3.5-2.3c1.4-0.6,3-0.8,5-0.8s3.6,0.3,5,0.8c1.4,0.6,2.5,1.3,3.5,2.3
	c0.9,1,1.6,2.1,2.1,3.5c0.4,1.3,0.7,2.7,0.7,4.2V335c0,1.5-0.2,2.9-0.7,4.2c-0.4,1.3-1.1,2.5-2.1,3.5c-0.9,1-2.1,1.8-3.5,2.3
	c-1.4,0.6-3,0.9-5,0.9s-3.6-0.3-5-0.9c-1.4-0.6-2.5-1.3-3.5-2.3c-0.9-1-1.6-2.2-2.1-3.5c-0.5-1.4-0.7-2.8-0.7-4.2V313.2z
	 M134.7,334.8c0,1.6,0.3,2.8,0.8,3.6c0.6,0.8,1.6,1.1,3.1,1.1s2.5-0.4,3.1-1.1c0.5-0.8,0.8-1.9,0.8-3.6v-21.5c0-1.6-0.3-2.8-0.8-3.6
	c-0.6-0.8-1.6-1.1-3.1-1.1s-2.5,0.4-3.1,1.1c-0.5,0.8-0.8,1.9-0.8,3.6V334.8z M155.3,345.3v-42.4h6.8l8.9,24.3h0.1v-24.3h6.6v42.4
	h-6.4l-9.3-26.5h-0.1v26.5H155.3z M188.2,345.3h-7.1l7.8-42.4h9.1l7.8,42.4h-7.1l-1.3-9.4h-8C189.5,335.9,188.2,345.3,188.2,345.3z
	 M190.5,329.6h5.9l-2.9-18.2h-0.1C193.4,311.3,190.5,329.6,190.5,329.6z M208.9,345.3v-42.4h7.3V339h11.5v6.3H208.9z"/>
<path d="M393.6,294.1c-0.8-0.3-0.9-2.8-1.4-2.8c-0.7,0-1,2.3-2.4,2.6c-1.4,0.2-3.4-1.5-4-1c-0.6,0.5,1.3,3.7-1.8,3.7
	c-0.9,0-1.4-1-1.4-1.8v-24.8c0,0,0.1,0,1.5,0.3c0.9,0.2,1.8,0.7,1.8,1.9c0,0.7-0.2,2,0.2,2.3c0.5,0.2,0.8-0.2,1-0.3
	c4.2-3.1,5.2,2.4,6.1,2.4c0.8,0,0.7-3.7,1.8-3.7c0.9-0.4,9.7,3.9,9.7,6.6c0,0.6-1.1,0.7-1.2,1.3c-0.1,0.8,2,1.1,1.7,2.6
	c-0.1,0.9-2.2,2.1-1.6,2.6c0.6,0.6,3.3-0.6,3.5-0.6c0.6,0,0.7,0.9,0.7,1.2C408,291.5,396.2,295.2,393.6,294.1 M362.4,298.1
	c-0.7-1.1-0.3-3.1-1-3.1c-0.3,0-2.2,2.7-3.2,2.7c-1,0-2.7-1.9-3.4-1.9c-0.5,0,0.5,2.7-0.5,3.9c-0.6,0.8-6,1.4-6,0.7v-38.7
	c0-1.8,1.4-2.5,2.6-2.5l20.4,0c2.5,0,3.5,0.8,3.5,3.4l0,34.8C374.8,298.4,362.8,298.9,362.4,298.1 M374.8,347.2c0,2.4-0.8,3-2.8,2.5
	l-21.8-4.3c-1.3-0.2-1.9-1-1.9-2.4v-39.4c0-1,3.5-1.1,4.1-0.7c1,0.9,0.7,4.2,1.4,4.2c0.9,0,3.3-4,4.3-4c2.2,0,3.6,1.3,4.1,1
	c0.5-0.2,0.5-2.1,1-2.5c0.8-0.6,3.2-0.6,4.4-0.7c1.9-0.1,3.9-0.3,5.8-0.4c1.5,0,1.4,1,1.4,3.2V347.2z M351.3,232.8
	c0-15.7,23.2-24.7,24.8-32.7c1.7,1.6,1.9,4.2,1.9,6.5c0,9.6-16.6,25.6-16.6,37.2c0,1.3,0.1,1.6,0.1,2.4c0,1.1-0.5,1.4-0.7,1.4
	C358.2,247.6,351.3,242.3,351.3,232.8 M338.5,331.1c-1.8,0-3-3.7-3.4-3.5c-0.6,0.1,0.1,3.1-0.6,3.5c-0.6,0.6-12.6-5-13.6-5.9
	c-0.8-0.8,0.3-1.9,0-2.7c-0.2-0.7-2.1-0.5-2.6-0.8c-0.5-0.4,0.6-2.5-0.1-3c-0.6-0.3-1.8,2.1-2.6,0.9c-0.4-0.5-0.4-1.2-0.4-2.3
	c0-7,7.4-9.8,12.4-11.5c2-0.7,1.3,1.9,2,2c0.8,0.2,0.9-1.3,1.8-1.3c0.7,0,3.3,1.3,3.9,0.8c0.5-0.3-1.4-2-0.8-2.7
	c0.7-0.6,6-1.6,5.9-0.2l0,24.3C340.4,331.4,338.5,331.1,338.5,331.1 M410,289.2c1.3-2.2,1.3-4.8,1.7-5.8c0.7-1.1,3.2-0.9,3.2-1.7
	c0-0.3-1.8-0.8-2.5-1.2c-1.3-0.8-0.9-4.9-1.6-4.9c-1,0-2.1,2.8-3.1,1.6c-1.8-2.3-9.3-6.6-12.7-7.9c-1.3-0.5,0.9-4.2,0.3-4.6
	c-0.6-0.3-2.1,2.3-4.2,1.8c-1.7-0.3-0.9-3.4-1.8-3.4c-0.5,0-2.2,4.3-3.4,4c-1.4-0.3-3.2-0.8-3.2-0.8v-11.4c0-1.9-1.3-3.4-3-3.4
	h-12.3c-3.4,0-3.2-2.5-3.2-3.1c0-15.1,22-17.7,22-37.5c0-8.7-5.5-14.5-11.8-19.6c-0.4-0.2,0,1.3,0,1.8c0,9.2-34.3,14-34.3,35.3
	c0,18.6,18.5,19.4,18.5,22.2c0,0.6-1.1,0.8-1.3,0.8h-14.1c-1.5,0-2.8,0.9-2.7,3.4l0,11.4c-1.4,0.5-3.2-1.6-4.1-1.6
	c-0.5,0-0.2,3.5-1,4c-0.7,0.3-13.6,4.9-14.7,5c-1.8,0.3-1.3-2.8-2.4-2.8c-0.9,0-0.9,3.2-3.2,3.2c-1.4,0-2.5-1.3-3.5-1.3
	c-0.7,0,1.5,2.6,1.5,3.4c0,2.2-4.2,3-4.2,4.4c0,0.8,4-0.3,4.6-0.3c2,0,1.8,2.4,2.6,2.4c0.8,0,1.4-2.8,2.1-3.2c1.4-0.8,3,0.6,3.6,0.6
	c1.1,0-0.9-2.7,0.1-3.2c0,0,13.9-5.9,14.8-5.5c0.8,0.5,0.7,1.8,1.6,2.3c0.9,0.4,2.3-3.2,2.3-0.9v27.9c-1.6,1-5,1.6-6.8,1.6
	c-0.9,0-0.5-3-1-3c-0.9,0-1.8,2.5-3.2,2.5c-1.3,0-3.1-3.1-4.3-3.1c-0.8,0,1.5,3.9,0.1,4.6c-5.2,2.6-13.6,5.1-13.6,13.4
	c0,1.7,0.9,3.8,0.6,4.3c-0.3,0.8-2.1,2.4-2,3.1c0,0.7,3.4,0.4,4.1,1.5c0.3,0.6,0.6,3.1,1.3,3.1c0.6,0,2-1.9,3.3-1.3
	c4,2.4,10.9,5,14.1,6.7c0.8,0.5,0.3,3,0.8,3.2c0.9,0.5,2.7-2.4,5.6-0.8c0.6,0.2,1.1,1.1,1.1,2.2l0,9.3c0,1.7,0.8,2.2,1.7,2.4l34,6.8
	c0,0,3,0.7,4,0.7c1.2,0,2.6,0,2.6-2.9l0-21.2c0-0.2,0.3-0.7,0.7-0.7c2,0,1,5.7,1.4,5.7c0.9,0,1.5-3.9,2.6-3.9c1.6,0,2.6,1.5,3.3,1.1
	c0.6-0.3-0.3-2.2-0.3-3.3c0-1,2.9-1.5,6.6-2.8c3.2-1.1,5.8-2.4,6.8-2.4c0.8,0,1.3,2.2,2,2.2c0.6,0,0.7-2.8,1.9-2.8
	c1,0,3.3,1.6,3.9,1.1c0.4-0.3-1.1-2.5,0.1-3.4c0.9-0.6,3.1-1.9,3.1-2.5c0-0.3-4.2-0.5-4.4-0.5c-0.8-0.2-1.7-2.7-2.3-2.7
	c-0.7,0-0.7,2.5-1.7,3.3c-0.9,0.7-3.2-2.4-4.2-2.4c-0.6,0,0.7,2.3,0.7,4.1c0,1.8-11,5.3-12.5,5.3c-2.3,0-2.4-2.8-2.9-2.8
	c-0.7,0-0.7,3.5-3.2,3.5c-0.9,0.1-1.6-0.6-1.7-1.5c0,0,0-0.1,0-0.1V301c0-0.8,0.2-1.8,1.7-1.9c1.9-0.1,1.9,4.2,2.6,4.2
	c1.3,0,1.9-4.2,4.3-4.2c1.8,0,3.3,2.5,4.4,2.5c0.8,0-1.4-2.6-1.4-3.9C394.4,296.4,405.7,296.8,410,289.2"/>
</svg>
